<svg width="428" height="87" viewBox="0 0 428 87" fill="none" xmlns="http://www.w3.org/2000/svg">
<path d="M89.68 64V17.92H120.4V25.6H97.36V33.28H120.4V40.96H97.36V56.32H120.4V64H89.68ZM120.4 33.28V25.6H128.08V33.28H120.4ZM120.4 56.32V40.96H128.08V56.32H120.4ZM143.423 25.6V17.92H166.463V25.6H143.423ZM135.743 64V25.6H143.423V48.64H166.463V25.6H174.143V64H166.463V56.32H143.423V64H135.743ZM189.485 25.6V17.92H212.525V25.6H189.485ZM181.805 56.32V25.6H189.485V56.32H181.805ZM212.525 33.28V25.6H220.205V33.28H212.525ZM212.525 56.32V48.64H220.205V56.32H212.525ZM189.485 64V56.32H212.525V64H189.485ZM235.548 33.28H250.908V40.96H235.548V64H227.868V17.92H235.548V33.28ZM266.268 17.92V25.6H258.588V17.92H266.268ZM258.588 25.6V33.28H250.908V25.6H258.588ZM258.588 48.64H250.908V40.96H258.588V48.64ZM266.268 64H258.588V48.64H266.268V64Z" fill="#F3A0BC"/>
<path d="M45.614 0C41.2488 0 36.8835 0 32.386 0C32.386 2.62666 32.386 5.25332 32.386 7.95957C30.2284 7.95957 28.0709 7.95957 25.848 7.95957C25.848 10.5251 25.848 13.0907 25.848 15.734C23.7406 15.734 21.6332 15.734 19.462 15.734C19.462 18.3607 19.462 20.9874 19.462 23.6936C17.3044 23.6936 15.1469 23.6936 12.924 23.6936C12.924 26.3203 12.924 28.9469 12.924 31.6532C10.8166 31.6532 8.70924 31.6532 6.53801 31.6532C6.53801 34.2188 6.53801 36.7843 6.53801 39.4277C4.38047 39.4277 2.22292 39.4277 0 39.4277C0 42.1154 0 44.8032 0 47.5723C2.15754 47.5723 4.31509 47.5723 6.53801 47.5723C6.53801 50.199 6.53801 52.8257 6.53801 55.5319C8.64538 55.5319 10.7527 55.5319 12.924 55.5319C12.924 58.0975 12.924 60.6631 12.924 63.3064C15.0815 63.3064 17.2391 63.3064 19.462 63.3064C19.462 65.933 19.462 68.5597 19.462 71.266C21.5694 71.266 23.6767 71.266 25.848 71.266C25.848 73.8315 25.848 76.3971 25.848 79.0404C28.0055 79.0404 30.163 79.0404 32.386 79.0404C32.386 81.6671 32.386 84.2937 32.386 87C36.7512 87 41.1165 87 45.614 87C45.614 84.3733 45.614 81.7467 45.614 79.0404C47.7214 79.0404 49.8288 79.0404 52 79.0404C52 76.4138 52 73.7871 52 71.0808C49.8926 71.0808 47.7853 71.0808 45.614 71.0808C45.614 68.4542 45.614 65.8275 45.614 63.1213C43.4565 63.1213 41.2989 63.1213 39.076 63.1213C39.076 60.5557 39.076 57.9901 39.076 55.3468C36.9185 55.3468 34.7609 55.3468 32.538 55.3468C32.538 52.7201 32.538 50.0935 32.538 47.3872C30.4306 47.3872 28.3233 47.3872 26.152 47.3872C26.152 44.8217 26.152 42.2561 26.152 39.6128C28.2594 39.6128 30.3668 39.6128 32.538 39.6128C32.538 36.9861 32.538 34.3594 32.538 31.6532C34.6956 31.6532 36.8531 31.6532 39.076 31.6532C39.076 29.0876 39.076 26.522 39.076 23.8787C41.2336 23.8787 43.3911 23.8787 45.614 23.8787C45.614 21.2521 45.614 18.6254 45.614 15.9191C47.7214 15.9191 49.8288 15.9191 52 15.9191C52 13.2925 52 10.6658 52 7.95957C49.8926 7.95957 47.7853 7.95957 45.614 7.95957C45.614 5.33291 45.614 2.70626 45.614 0Z" fill="#F3A0BC"/>
</svg>
