<svg width="115" height="36" viewBox="0 0 115 36" fill="none" xmlns="http://www.w3.org/2000/svg">
<path d="M111.128 25.9106V18.545C111.128 17.9808 111.014 17.4915 110.785 17.0771C110.564 16.654 110.229 16.3278 109.78 16.0986C109.33 15.8694 108.775 15.7548 108.113 15.7548C107.496 15.7548 106.954 15.8606 106.487 16.0721C106.028 16.2837 105.667 16.5614 105.402 16.9052C105.147 17.2491 105.019 17.6193 105.019 18.016H102.573C102.573 17.5047 102.705 16.9978 102.969 16.4953C103.234 15.9928 103.613 15.5388 104.107 15.1333C104.609 14.7189 105.209 14.3927 105.905 14.1547C106.61 13.9078 107.395 13.7844 108.259 13.7844C109.299 13.7844 110.216 13.9607 111.009 14.3134C111.812 14.666 112.438 15.1994 112.887 15.9135C113.346 16.6187 113.575 17.5047 113.575 18.5714V25.2362C113.575 25.7123 113.614 26.2192 113.694 26.757C113.782 27.2947 113.91 27.7576 114.077 28.1455V28.357H111.525C111.402 28.0749 111.305 27.7003 111.234 27.233C111.164 26.757 111.128 26.3162 111.128 25.9106ZM111.552 19.6822L111.578 21.4013H109.105C108.409 21.4013 107.787 21.4586 107.241 21.5732C106.694 21.679 106.236 21.8421 105.865 22.0625C105.495 22.2829 105.213 22.5606 105.019 22.8956C104.825 23.2218 104.728 23.6053 104.728 24.0461C104.728 24.4957 104.829 24.9056 105.032 25.2759C105.235 25.6462 105.539 25.9415 105.945 26.1619C106.359 26.3735 106.866 26.4793 107.465 26.4793C108.215 26.4793 108.876 26.3206 109.449 26.0032C110.022 25.6858 110.476 25.2979 110.811 24.8395C111.155 24.3811 111.34 23.9359 111.366 23.5039L112.411 24.6808C112.349 25.0511 112.182 25.461 111.909 25.9106C111.635 26.3602 111.269 26.7922 110.811 27.2066C110.361 27.6121 109.824 27.9515 109.198 28.2248C108.581 28.4893 107.884 28.6215 107.108 28.6215C106.139 28.6215 105.288 28.432 104.556 28.0529C103.833 27.6738 103.269 27.1669 102.864 26.5322C102.467 25.8886 102.268 25.1701 102.268 24.3767C102.268 23.6097 102.418 22.9353 102.718 22.3534C103.018 21.7628 103.45 21.2735 104.014 20.8856C104.578 20.4889 105.257 20.1891 106.05 19.9864C106.844 19.7836 107.73 19.6822 108.708 19.6822H111.552Z" fill="#424040"/>
<path d="M94.0961 26.8759L98.0765 14.0488H100.695L94.9557 30.5653C94.8234 30.918 94.6471 31.2971 94.4267 31.7026C94.2151 32.1169 93.9418 32.5092 93.6068 32.8795C93.2718 33.2498 92.8663 33.5495 92.3902 33.7787C91.923 34.0168 91.3632 34.1358 90.7108 34.1358C90.5169 34.1358 90.27 34.1093 89.9703 34.0564C89.6705 34.0035 89.459 33.9594 89.3355 33.9242L89.3223 31.9406C89.3928 31.9494 89.503 31.9582 89.6529 31.9671C89.8116 31.9847 89.9218 31.9935 89.9835 31.9935C90.5389 31.9935 91.0106 31.9186 91.3985 31.7687C91.7863 31.6277 92.1125 31.3852 92.377 31.0414C92.6503 30.7064 92.8839 30.2436 93.0779 29.6529L94.0961 26.8759ZM91.1736 14.0488L94.8895 25.1568L95.5243 27.7355L93.7655 28.6347L88.5024 14.0488H91.1736Z" fill="#424040"/>
<path d="M87.2065 14.0489V15.9267H79.4706V14.0489H87.2065ZM82.0889 10.571H84.5353V24.8131C84.5353 25.2979 84.6102 25.6638 84.7601 25.9106C84.91 26.1575 85.1039 26.3206 85.3419 26.3999C85.58 26.4793 85.8356 26.5189 86.1089 26.5189C86.3117 26.5189 86.5233 26.5013 86.7437 26.466C86.9729 26.422 87.1448 26.3867 87.2594 26.3603L87.2726 28.357C87.0787 28.4188 86.823 28.4761 86.5056 28.529C86.1971 28.5907 85.8224 28.6215 85.3816 28.6215C84.7821 28.6215 84.2311 28.5025 83.7286 28.2645C83.2261 28.0264 82.825 27.6297 82.5253 27.0743C82.2344 26.5101 82.0889 25.752 82.0889 24.7998V10.571Z" fill="#424040"/>
<path d="M74.9216 25.9106V18.545C74.9216 17.9808 74.807 17.4915 74.5778 17.0771C74.3574 16.654 74.0224 16.3278 73.5728 16.0986C73.1231 15.8694 72.5678 15.7548 71.9066 15.7548C71.2895 15.7548 70.7473 15.8606 70.28 16.0721C69.8216 16.2837 69.4602 16.5614 69.1957 16.9052C68.94 17.2491 68.8122 17.6193 68.8122 18.016H66.3658C66.3658 17.5047 66.498 16.9978 66.7625 16.4953C67.027 15.9928 67.4061 15.5388 67.8998 15.1333C68.4023 14.7189 69.0017 14.3927 69.6982 14.1547C70.4035 13.9078 71.1881 13.7844 72.052 13.7844C73.0923 13.7844 74.0091 13.9607 74.8026 14.3134C75.6048 14.666 76.2307 15.1994 76.6803 15.9135C77.1388 16.6187 77.368 17.5047 77.368 18.5714V25.2362C77.368 25.7123 77.4077 26.2192 77.487 26.757C77.5752 27.2947 77.703 27.7576 77.8705 28.1455V28.357H75.3183C75.1949 28.0749 75.0979 27.7003 75.0274 27.233C74.9568 26.757 74.9216 26.3162 74.9216 25.9106ZM75.3447 19.6822L75.3712 21.4013H72.8983C72.2019 21.4013 71.5804 21.4586 71.0338 21.5732C70.4872 21.679 70.0288 21.8421 69.6585 22.0625C69.2883 22.2829 69.0061 22.5606 68.8122 22.8956C68.6182 23.2218 68.5213 23.6053 68.5213 24.0461C68.5213 24.4957 68.6227 24.9056 68.8254 25.2759C69.0282 25.6462 69.3323 25.9415 69.7379 26.1619C70.1522 26.3735 70.6591 26.4793 71.2586 26.4793C72.0079 26.4793 72.6691 26.3206 73.2422 26.0032C73.8152 25.6858 74.2692 25.2979 74.6042 24.8395C74.948 24.3811 75.1332 23.9359 75.1596 23.5039L76.2043 24.6808C76.1426 25.0511 75.9751 25.461 75.7018 25.9106C75.4285 26.3602 75.0626 26.7922 74.6042 27.2066C74.1546 27.6121 73.6168 27.9515 72.9909 28.2248C72.3738 28.4893 71.6773 28.6215 70.9016 28.6215C69.9318 28.6215 69.0811 28.432 68.3494 28.0529C67.6265 27.6738 67.0622 27.1669 66.6567 26.5322C66.26 25.8886 66.0616 25.1701 66.0616 24.3767C66.0616 23.6097 66.2115 22.9353 66.5113 22.3534C66.811 21.7628 67.243 21.2735 67.8072 20.8856C68.3714 20.4889 69.0502 20.1891 69.8436 19.9864C70.6371 19.7836 71.5231 19.6822 72.5016 19.6822H75.3447Z" fill="#424040"/>
<path d="M53.9619 17.1036V28.357H51.5155V14.0489H53.8297L53.9619 17.1036ZM53.3801 20.6608L52.3618 20.6211C52.3706 19.6426 52.5161 18.7389 52.7982 17.9102C53.0803 17.0727 53.477 16.3454 53.9884 15.7283C54.4997 15.1112 55.108 14.6352 55.8132 14.3002C56.5273 13.9563 57.3163 13.7844 58.1803 13.7844C58.8856 13.7844 59.5203 13.8814 60.0845 14.0753C60.6487 14.2605 61.1292 14.5602 61.5259 14.9746C61.9314 15.3889 62.24 15.9267 62.4516 16.5879C62.6632 17.2402 62.7689 18.0381 62.7689 18.9814V28.357H60.3093V18.9549C60.3093 18.2056 60.1991 17.6061 59.9787 17.1565C59.7583 16.6981 59.4366 16.3675 59.0134 16.1647C58.5902 15.9531 58.0701 15.8473 57.453 15.8473C56.8447 15.8473 56.2893 15.9752 55.7868 16.2308C55.2931 16.4865 54.8655 16.8391 54.5041 17.2887C54.1514 17.7383 53.8737 18.2541 53.671 18.8359C53.477 19.4089 53.3801 20.0172 53.3801 20.6608Z" fill="#424040"/>
<path d="M21.4815 33.608C15.164 33.608 8.84734 33.608 2.52988 33.6065C2.32122 33.6065 2.11181 33.5975 1.90466 33.5735C0.795353 33.4444 -0.0134873 32.442 0.000170392 31.4471C0.000929154 31.378 0.000170392 31.309 0.000170392 31.24C0.000170392 21.7087 0.000170392 12.1766 0.000170392 2.64452C0.000170392 2.41042 0.00699926 2.18007 0.0646652 1.94747C0.256632 1.17989 0.96911 0.350785 2.17023 0.29226C2.21196 0.290009 2.25369 0.29226 2.29543 0.29226C6.13021 0.29226 9.965 0.29226 13.8005 0.29226C14.4288 0.29226 15.0138 0.449828 15.5404 0.791974C15.7255 0.912775 15.8978 1.05609 16.0624 1.2039C17.8584 2.81784 19.6514 4.43478 21.4458 6.05022C21.7038 6.28207 21.9595 6.51617 22.2213 6.74502C22.7623 7.21847 23.3921 7.48033 24.1159 7.51034C24.2828 7.5171 24.4505 7.5171 24.6175 7.5171C29.903 7.5171 35.1878 7.5171 40.4733 7.5171C40.7806 7.5171 41.0872 7.5246 41.3838 7.61164C42.3163 7.88626 42.9241 8.65984 42.9924 9.65776C43.0008 9.78157 42.9985 9.90612 42.9985 10.0299C42.9985 17.0514 42.9985 24.0729 43 31.0937C43 31.4126 42.9841 31.7277 42.8945 32.0353C42.6859 32.7489 42.0091 33.5525 40.8102 33.6065C40.685 33.6117 40.5591 33.6087 40.4339 33.6087C34.1164 33.6087 27.7997 33.6087 21.4823 33.6087L21.4815 33.608Z" fill="#C59D00"/>
<path d="M21.4815 35.6903C15.164 35.6903 8.84734 35.6903 2.52988 35.6888C2.32122 35.6888 2.11181 35.6798 1.90466 35.6558C0.795353 35.5267 -0.0134873 34.5243 0.000170392 33.5293C0.000929154 33.4603 0.000170392 33.3913 0.000170392 33.3223C0.000170392 23.7909 0.000170392 14.2589 0.000170392 4.72679C0.000170392 4.49269 0.00699926 4.26234 0.0646652 4.02974C0.256632 3.26216 0.96911 2.43306 2.17023 2.37454C2.21196 2.37228 2.25369 2.37454 2.29543 2.37454C6.13021 2.37454 9.965 2.37454 13.8005 2.37454C14.4288 2.37454 15.0138 2.5321 15.5404 2.87425C15.7255 2.99505 15.8978 3.13836 16.0624 3.28618C17.8584 4.90011 19.6514 6.51706 21.4458 8.1325C21.7038 8.36434 21.9595 8.59845 22.2213 8.82729C22.7623 9.30075 23.3921 9.56261 24.1159 9.59262C24.2828 9.59937 24.4505 9.59937 24.6175 9.59937C29.903 9.59937 35.1878 9.59937 40.4733 9.59937C40.7806 9.59937 41.0872 9.60688 41.3838 9.69391C42.3163 9.96853 42.9241 10.7421 42.9924 11.74C43.0008 11.8638 42.9985 11.9884 42.9985 12.1122C42.9985 19.1337 42.9985 26.1552 43 33.1759C43 33.4948 42.9841 33.81 42.8945 34.1176C42.6859 34.8312 42.0091 35.6347 40.8102 35.6888C40.685 35.694 40.5591 35.691 40.4339 35.691C34.1164 35.691 27.7997 35.691 21.4823 35.691L21.4815 35.6903Z" fill="#F2C208"/>
<g clip-path="url(#clip0_2298_48)">
<path d="M41.4219 22L45.5766 19.5384L42.1561 13.4601L49 13.4601L49 8.53993L42.1561 8.53993L45.5766 2.46158L41.4219 -3.31248e-07L38.0015 6.07835L34.5781 -6.30402e-07L30.4234 2.46158L33.8468 8.53993L27 8.53993L27 13.4601L33.8468 13.4601L30.4234 19.5384L34.5781 22L38.0015 15.9186L41.4219 22Z" fill="white"/>
</g>
<defs>
<clipPath id="clip0_2298_48">
<rect width="22" height="22" fill="white" transform="translate(49) rotate(90)"/>
</clipPath>
</defs>
</svg>
