<svg width="428" height="87" viewBox="0 0 428 87" fill="none" xmlns="http://www.w3.org/2000/svg">
<path d="M169.43 64V17.92H177.11V25.6H184.79V33.28H177.11V64H169.43ZM192.47 48.64V40.96H200.15V17.92H207.83V64H200.15V48.64H192.47ZM184.79 40.96V33.28H192.47V40.96H184.79ZM215.493 64V17.92H253.893V25.6H223.173V33.28H246.213V40.96H223.173V56.32H253.893V64H215.493ZM261.555 25.6V17.92H269.235V25.6H261.555ZM292.275 25.6V17.92H299.955V25.6H292.275ZM269.235 33.28V25.6H276.915V33.28H269.235ZM284.595 33.28V25.6H292.275V33.28H284.595ZM276.915 40.96V33.28H284.595V40.96H276.915ZM269.235 48.64V40.96H276.915V48.64H269.235ZM284.595 48.64V40.96H292.275V48.64H284.595ZM261.555 64V48.64H269.235V64H261.555ZM292.275 64V48.64H299.955V64H292.275ZM307.618 25.6V17.92H346.018V25.6H330.658V64H322.978V25.6H307.618Z" fill="#F3A0BC"/>
<path d="M382.386 0C386.751 0 391.116 0 395.614 0C395.614 2.62666 395.614 5.25332 395.614 7.95957C397.772 7.95957 399.929 7.95957 402.152 7.95957C402.152 10.5251 402.152 13.0907 402.152 15.734C404.259 15.734 406.367 15.734 408.538 15.734C408.538 18.3607 408.538 20.9874 408.538 23.6936C410.696 23.6936 412.853 23.6936 415.076 23.6936C415.076 26.3203 415.076 28.9469 415.076 31.6532C417.183 31.6532 419.291 31.6532 421.462 31.6532C421.462 34.2188 421.462 36.7843 421.462 39.4277C423.62 39.4277 425.777 39.4277 428 39.4277C428 42.1154 428 44.8032 428 47.5723C425.842 47.5723 423.685 47.5723 421.462 47.5723C421.462 50.199 421.462 52.8257 421.462 55.5319C419.355 55.5319 417.247 55.5319 415.076 55.5319C415.076 58.0975 415.076 60.6631 415.076 63.3064C412.918 63.3064 410.761 63.3064 408.538 63.3064C408.538 65.933 408.538 68.5597 408.538 71.266C406.431 71.266 404.323 71.266 402.152 71.266C402.152 73.8315 402.152 76.3971 402.152 79.0404C399.995 79.0404 397.837 79.0404 395.614 79.0404C395.614 81.6671 395.614 84.2937 395.614 87C391.249 87 386.884 87 382.386 87C382.386 84.3733 382.386 81.7467 382.386 79.0404C380.279 79.0404 378.171 79.0404 376 79.0404C376 76.4138 376 73.7871 376 71.0808C378.107 71.0808 380.215 71.0808 382.386 71.0808C382.386 68.4542 382.386 65.8275 382.386 63.1213C384.544 63.1213 386.701 63.1213 388.924 63.1213C388.924 60.5557 388.924 57.9901 388.924 55.3468C391.082 55.3468 393.239 55.3468 395.462 55.3468C395.462 52.7201 395.462 50.0935 395.462 47.3872C397.569 47.3872 399.677 47.3872 401.848 47.3872C401.848 44.8217 401.848 42.2561 401.848 39.6128C399.741 39.6128 397.633 39.6128 395.462 39.6128C395.462 36.9861 395.462 34.3594 395.462 31.6532C393.304 31.6532 391.147 31.6532 388.924 31.6532C388.924 29.0876 388.924 26.522 388.924 23.8787C386.766 23.8787 384.609 23.8787 382.386 23.8787C382.386 21.2521 382.386 18.6254 382.386 15.9191C380.279 15.9191 378.171 15.9191 376 15.9191C376 13.2925 376 10.6658 376 7.95957C378.107 7.95957 380.215 7.95957 382.386 7.95957C382.386 5.33291 382.386 2.70626 382.386 0Z" fill="#F3A0BC"/>
</svg>
