<svg width="41" height="155" viewBox="0 0 41 155" fill="none" xmlns="http://www.w3.org/2000/svg">
<g clip-path="url(#clip0_2310_11)">
<path d="M26.8772 155L34.62 150.524L28.2455 139.473L41 139.473L41 130.527L28.2455 130.527L34.62 119.476L26.8772 115L20.5027 126.052L14.1228 115L6.37997 119.476L12.76 130.527L-6.78713e-07 130.527L-1.06974e-06 139.473L12.76 139.473L6.37997 150.524L14.1228 155L20.5027 143.943L26.8772 155Z" fill="#424040"/>
</g>
<g clip-path="url(#clip1_2310_11)">
<path d="M26.8772 98L34.62 93.4125L28.2455 82.0847L41 82.0847L41 72.9153L28.2455 72.9153L34.62 61.5875L26.8772 57L20.5027 68.3278L14.1228 57L6.37997 61.5875L12.76 72.9153L-6.95681e-07 72.9153L-1.09649e-06 82.0847L12.76 82.0847L6.37997 93.4125L14.1228 98L20.5027 86.6665L26.8772 98Z" fill="#424040"/>
</g>
<g clip-path="url(#clip2_2310_11)">
<path d="M26.8772 40L34.62 35.5244L28.2455 24.4729L41 24.4729L41 15.5271L28.2455 15.5271L34.62 4.4756L26.8772 -6.17326e-07L20.5027 11.0515L14.1228 -1.17484e-06L6.37997 4.4756L12.76 15.5271L-6.78713e-07 15.5271L-1.06974e-06 24.4728L12.76 24.4728L6.37997 35.5244L14.1228 40L20.5027 28.943L26.8772 40Z" fill="#424040"/>
</g>
<defs>
<clipPath id="clip0_2310_11">
<rect width="40" height="41" fill="white" transform="translate(41 115) rotate(90)"/>
</clipPath>
<clipPath id="clip1_2310_11">
<rect width="41" height="41" fill="white" transform="translate(41 57) rotate(90)"/>
</clipPath>
<clipPath id="clip2_2310_11">
<rect width="40" height="41" fill="white" transform="translate(41) rotate(90)"/>
</clipPath>
</defs>
</svg>
