<svg width="310" height="253" viewBox="0 0 310 253" fill="none" xmlns="http://www.w3.org/2000/svg">
<path d="M154.867 236.989C109.322 236.989 63.7831 236.989 18.2387 236.978C16.7344 236.978 15.2246 236.914 13.7313 236.743C5.73394 235.825 -0.0972343 228.695 0.0012284 221.618C0.00669855 221.126 0.0012284 220.635 0.0012284 220.144C0.0012284 152.346 0.0012284 84.5427 0.0012284 16.7392C0.0012284 15.074 0.0504598 13.4355 0.466191 11.7809C1.85014 6.321 6.98661 0.423416 15.6458 0.00711624C15.9467 -0.0088953 16.2476 0.00711624 16.5484 0.00711624C44.1945 0.00711624 71.8407 0.00711624 99.4923 0.00711624C104.022 0.00711624 108.239 1.12792 112.035 3.56168C113.37 4.42096 114.612 5.44037 115.799 6.49179C128.747 17.9721 141.673 29.4737 154.609 40.9646C156.469 42.6138 158.313 44.279 160.2 45.9069C164.1 49.2746 168.64 51.1373 173.859 51.3508C175.062 51.3988 176.271 51.3988 177.475 51.3988C215.58 51.3988 253.679 51.3988 291.784 51.3988C294 51.3988 296.21 51.4522 298.349 52.0713C305.071 54.0247 309.453 59.5274 309.945 66.6258C310.005 67.5064 309.989 68.3924 309.989 69.273C309.989 119.218 309.989 169.164 310 219.104C310 221.372 309.885 223.614 309.24 225.802C307.735 230.878 302.856 236.594 294.213 236.978C293.311 237.015 292.402 236.994 291.5 236.994C245.955 236.994 200.416 236.994 154.872 236.994L154.867 236.989Z" fill="#C59D00"/>
<path d="M154.867 252.989C109.322 252.989 63.7831 252.989 18.2387 252.978C16.7344 252.978 15.2246 252.913 13.7313 252.742C5.73394 251.82 -0.0972343 244.66 0.0012284 237.553C0.00669855 237.06 0.0012284 236.566 0.0012284 236.073C0.0012284 167.989 0.0012284 99.8994 0.0012284 31.8098C0.0012284 30.1376 0.0504598 28.4922 0.466191 26.8306C1.85014 21.3477 6.98661 15.4252 15.6458 15.0071C15.9467 14.9911 16.2476 15.0071 16.5484 15.0071C44.1945 15.0071 71.8407 15.0071 99.4923 15.0071C104.022 15.0071 108.239 16.1327 112.035 18.5767C113.37 19.4396 114.612 20.4633 115.799 21.5192C128.747 33.0479 141.673 44.598 154.609 56.1375C156.469 57.7936 158.313 59.4659 160.2 61.1006C164.1 64.4825 168.64 66.3531 173.859 66.5675C175.062 66.6157 176.271 66.6157 177.475 66.6157C215.58 66.6157 253.679 66.6157 291.784 66.6157C294 66.6157 296.21 66.6693 298.349 67.291C305.071 69.2527 309.453 74.7785 309.945 81.9069C310.005 82.7913 309.989 83.681 309.989 84.5653C309.989 134.721 309.989 184.877 310 235.028C310 237.306 309.885 239.557 309.24 241.755C307.735 246.852 302.856 252.592 294.213 252.978C293.311 253.015 292.402 252.994 291.5 252.994C245.955 252.994 200.416 252.994 154.872 252.994L154.867 252.989Z" fill="#F2C208"/>
</svg>
